<svg width="56" height="56" viewBox="0 0 56 56" fill="none" xmlns="http://www.w3.org/2000/svg">
<g id="Frame" clip-path="url(#clip0_1_623)">
<mask id="mask0_1_623" style="mask-type:alpha" maskUnits="userSpaceOnUse" x="0" y="0" width="56" height="56">
<g id="mask__beam">
<path id="Vector" d="M56 28C56 12.536 43.464 0 28 0C12.536 0 0 12.536 0 28C0 43.464 12.536 56 28 56C43.464 56 56 43.464 56 28Z" fill="white"/>
</g>
</mask>
<g mask="url(#mask0_1_623)">
<g id="Group">
<path id="Vector_2" d="M56 0H0V56H56V0Z" fill="#FEB052"/>
<path id="Vector_3" d="M63.2678 -1.64811L18.8018 3.81164C12.6623 4.56547 8.29636 10.1536 9.05019 16.2931L14.5099 60.7592C15.2638 66.8986 20.8519 71.2646 26.9914 70.5107L71.4575 65.051C77.597 64.2972 81.9629 58.709 81.2091 52.5695L75.7493 8.10347C74.9955 1.96399 69.4073 -2.40194 63.2678 -1.64811Z" fill="#4894FE"/>
<g id="Group_2">
<path id="Vector_4" d="M29.0284 31.3489C32.2167 32.7395 35.3235 32.5767 38.3489 30.8605" stroke="white" stroke-width="2.22222" stroke-linecap="round"/>
<path id="Vector_5" d="M24.6564 22.2319C24.6114 21.374 24.0533 20.7058 23.4099 20.7396C22.7664 20.7733 22.2813 21.4961 22.3262 22.3541C22.3712 23.212 22.9293 23.8801 23.5727 23.8464C24.2162 23.8127 24.7013 23.0899 24.6564 22.2319Z" fill="white"/>
<path id="Vector_6" d="M43.2975 21.255C43.2525 20.3971 42.6944 19.7289 42.051 19.7626C41.4075 19.7964 40.9224 20.5192 40.9673 21.3771C41.0123 22.2351 41.5704 22.9032 42.2138 22.8695C42.8573 22.8358 43.3424 22.1129 43.2975 21.255Z" fill="white"/>
</g>
</g>
</g>
</g>
<defs>
<clipPath id="clip0_1_623">
<rect width="56" height="56" fill="white"/>
</clipPath>
</defs>
</svg>
